<?xml version="1.0" standalone="no"?>
<!DOCTYPE svg PUBLIC "-//W3C//DTD SVG 20010904//EN"
 "http://www.w3.org/TR/2001/REC-SVG-20010904/DTD/svg10.dtd">
<svg version="1.0" xmlns="http://www.w3.org/2000/svg"
 width="406.000000pt" height="406.000000pt" viewBox="0 0 406.000000 406.000000"
 preserveAspectRatio="xMidYMid meet">
<metadata>
Created by potrace 1.14, written by Peter Selinger 2001-2017
</metadata>
<g transform="translate(0.000000,406.000000) scale(0.100000,-0.100000)"
fill="#ffffff" stroke="none">
<path d="M987 3424 c-4 -4 -7 -436 -7 -961 l0 -953 235 0 235 0 0 225 0 225
613 -2 612 -3 2 -145 c3 -167 -14 -288 -54 -389 -88 -222 -271 -347 -523 -357
-172 -6 -319 28 -426 102 l-67 46 -226 0 c-332 0 -303 2 -296 -24 22 -75 99
-191 181 -272 159 -158 377 -257 635 -286 88 -10 249 -13 294 -6 17 3 63 10
102 16 133 19 284 78 406 157 236 154 389 418 436 748 6 42 9 429 8 975 l-2
905 -550 0 -550 0 0 -215 0 -215 310 -2 c171 -2 313 -3 317 -3 4 0 7 -132 7
-294 0 -232 -2 -295 -13 -299 -17 -7 -1203 -3 -1210 4 -3 3 -7 234 -8 514 l-3
510 -226 3 c-124 1 -228 -1 -232 -4z"/>
</g>
</svg>
